<?xml version="1.0" encoding="utf-8"?>
<!-- Generator: Adobe Illustrator 18.1.0, SVG Export Plug-In . SVG Version: 6.00 Build 0)  -->
<!DOCTYPE svg PUBLIC "-//W3C//DTD SVG 1.1//EN" "http://www.w3.org/Graphics/SVG/1.1/DTD/svg11.dtd">
<svg version="1.1" id="Layer_1" xmlns="http://www.w3.org/2000/svg" xmlns:xlink="http://www.w3.org/1999/xlink" x="0px" y="0px"
	 viewBox="0 0 69.5 82.8" enable-background="new 0 0 69.5 82.8" xml:space="preserve">
<path fill="#F7F7F7" d="M43.3,46.9c10.2-4.3,20-14.5,20-24.1C63.2,10.2,53,0,40.4,0H0v44c3.7-4.2,6.8-6.7,10.2-8.4
	c-3.4-3.3-5.4,2.9-7.6,1.6c-0.5-0.3-0.7-0.9-0.5-1.5c1.4-3.7,2.9-7.4,5.6-10.2c2.1-2.2,3.7-2.8,7-2.3c1,0.2,1.9,0.4,2.9,0.6
	c0.5,0.1,0.7,0,1-0.3c2.6-2.9,5.4-5.5,8.6-7.7c4.8-3.2,10.3-4.7,16.3-4.8c0.6,0,1.2,0,1.8,0c0.6,0,1.1,0.2,1.4,0.5
	c0.3,0.3,0.4,0.8,0.3,1.5c-0.1,0.6-0.1,1.2-0.2,1.8c-0.8,6-3.1,11.2-6.8,15.6c-2.5,3-5.5,5.4-8.7,7.6c-0.3,0.2-0.5,0.5-0.4,0.9
	c0.1,1,0.2,1.9,0.3,2.9c0,3.3-0.7,4.9-3.2,6.7c-3.2,2.3-7,3.3-10.8,4.3c-0.7,0.2-1.2-0.1-1.4-0.6c-1.1-2.3,5.4-3.6,2.4-7.4
	c-3.8,3.4-5.8,7.6-6.3,12.6C11.4,62.9,13,68.5,16.5,73c3,3.9,6.1,7,9,9.2c0.6,0.5,1.4,0.7,2.2,0.7h41.7L43.3,46.9z"/>
</svg>
