<?xml version="1.0" encoding="utf-8"?>
<!-- Generator: Adobe Illustrator 19.1.0, SVG Export Plug-In . SVG Version: 6.00 Build 0)  -->
<svg version="1.1" id="Layer_1" xmlns="http://www.w3.org/2000/svg" xmlns:xlink="http://www.w3.org/1999/xlink" x="0px" y="0px"
	 viewBox="17 8 168 35" style="enable-background:new 17 8 168 35;" xml:space="preserve">
<style type="text/css">
	.st0{display:none;}
	.st1{display:inline;fill:#F05323;}
	.st2{fill:#FFFFFF;}
</style>
<g id="Layer_2" class="st0">
	<rect x="16.6" y="8.1" class="st1" width="168.6" height="35.7"/>
</g>
<g id="Layer_1_1_">
	<g>
		<g>
			<path class="st2" d="M58.9,29.5c0,6-4.1,8.6-8,8.6c-4.4,0-7.7-3.2-7.7-8.3c0-5.4,3.5-8.6,8-8.6C55.7,21.2,58.9,24.6,58.9,29.5z
				 M46.1,29.7c0,3.5,2,6.2,4.9,6.2c2.8,0,4.9-2.6,4.9-6.3c0-2.7-1.4-6.2-4.8-6.2C47.6,23.4,46.1,26.6,46.1,29.7z"/>
			<path class="st2" d="M65.5,29L65.5,29c0.5-0.6,1-1.3,1.5-1.8l4.7-5.6h3.5L69,28.2l7.1,9.5h-3.6L67,30l-1.5,1.7v6.1h-2.9V14.1h2.9
				V29z"/>
			<path class="st2" d="M81.7,29L81.7,29c0.5-0.6,1-1.3,1.5-1.8l4.7-5.6h3.5l-6.2,6.6l7.1,9.5h-3.6L83.2,30l-1.5,1.7v6.1h-2.9V14.1
				h2.9V29z"/>
			<path class="st2" d="M96,30.2c0.1,4,2.6,5.6,5.5,5.6c2.1,0,3.4-0.4,4.5-0.8l0.5,2.1c-1,0.5-2.8,1-5.4,1c-5,0-7.9-3.3-7.9-8.1
				c0-4.9,2.9-8.7,7.6-8.7c5.3,0,6.7,4.6,6.7,7.6c0,0.6-0.1,1.1-0.1,1.4H96V30.2z M104.6,28.1c0-1.9-0.8-4.8-4.1-4.8
				c-3,0-4.3,2.7-4.5,4.8H104.6z"/>
			<path class="st2" d="M114.6,17v4.6h4.2v2.2h-4.2v8.7c0,2,0.6,3.1,2.2,3.1c0.8,0,1.3-0.1,1.7-0.2l0.1,2.2
				c-0.6,0.2-1.5,0.4-2.6,0.4c-1.4,0-2.5-0.4-3.2-1.2c-0.8-0.9-1.1-2.3-1.1-4.2v-8.8h-2.5v-2.2h2.5v-3.9L114.6,17z"/>
			<path class="st2" d="M141.1,27.9c-0.2-3.1-0.4-6.9-0.3-9.7h-0.1c-0.8,2.6-1.7,5.4-2.8,8.5l-4,10.9h-2.2l-3.6-10.7
				c-1.1-3.2-2-6.1-2.6-8.7h-0.1c-0.1,2.8-0.2,6.6-0.4,9.9l-0.6,9.6h-2.8l1.6-22.5h3.7l3.8,10.9c0.9,2.8,1.7,5.2,2.3,7.6h0.1
				c0.6-2.3,1.4-4.7,2.4-7.6l4-10.9h3.7l1.4,22.5h-2.8L141.1,27.9z"/>
			<path class="st2" d="M150.7,30.2c0.1,4,2.6,5.6,5.5,5.6c2.1,0,3.4-0.4,4.5-0.8l0.5,2.1c-1,0.5-2.8,1-5.4,1c-5,0-7.9-3.3-7.9-8.1
				c0-4.9,2.9-8.7,7.6-8.7c5.3,0,6.7,4.6,6.7,7.6c0,0.6-0.1,1.1-0.1,1.4h-11.4V30.2z M159.3,28.1c0-1.9-0.8-4.8-4.1-4.8
				c-3,0-4.3,2.7-4.5,4.8H159.3z"/>
			<path class="st2" d="M179.7,14.1v19.5c0,1.4,0,3.1,0.1,4.2h-2.6l-0.1-2.8H177c-0.9,1.8-2.9,3.2-5.5,3.2c-3.9,0-6.9-3.3-6.9-8.2
				c0-5.4,3.3-8.7,7.2-8.7c2.5,0,4.1,1.2,4.9,2.5h0.1v-9.7H179.7z M176.8,28.2c0-0.4,0-0.9-0.1-1.2c-0.4-1.9-2-3.4-4.2-3.4
				c-3,0-4.8,2.7-4.8,6.2c0,3.3,1.6,6,4.8,6c2,0,3.8-1.3,4.3-3.5c0.1-0.4,0.1-0.8,0.1-1.3v-2.8H176.8z"/>
		</g>
		<path class="st2" d="M34.8,27.1c3.1-1.3,6-4.3,6-7.2c0-3.8-3.1-6.9-6.8-6.9H21.9v13.2c1.1-1.2,2-2,3.1-2.5c-1-1-1.6,0.9-2.3,0.5
			c-0.1-0.1-0.2-0.3-0.1-0.4c0.4-1.1,0.9-2.2,1.7-3.1c0.5-0.7,1-0.9,2-0.7c0.3,0.1,0.6,0.1,0.9,0.2c0.1,0,0.2,0,0.3-0.1
			c0.8-0.9,1.6-1.7,2.6-2.3c1.4-0.9,3.1-1.4,4.9-1.4c0.2,0,0.4,0,0.5,0c0.2,0,0.3,0.1,0.4,0.2c0,0,0.1,0.1,0.1,0.3s0,0.3-0.1,0.5
			c-0.2,1.8-0.9,3.3-2,4.7c-0.8,0.9-1.6,1.6-2.6,2.3c-0.1,0.1-0.1,0.1-0.1,0.3c0,0.3,0.1,0.6,0.1,0.9c0,1-0.2,1.5-1,2
			c-1,0.7-2.1,1-3.2,1.3c-0.2,0-0.4,0-0.4-0.2c-0.3-0.7,1.6-1.1,0.7-2.2c-1.2,1-1.7,2.3-1.9,3.8c-0.2,1.7,0.3,3.4,1.4,4.7
			c0.9,1.2,1.8,2.1,2.7,2.7c0.2,0.1,0.4,0.2,0.7,0.2h12.5L34.8,27.1z"/>
	</g>
</g>
</svg>
